<svg width="1440" height="691" xmlns="http://www.w3.org/2000/svg"><g><path d="M-52,-33L-88,220L-48,26Z" fill="#ffffff" stroke="#ffffff" fill-opacity="1" stroke-opacity="1"/><path d="M-52,-33L-48,26L44,-12Z" fill="#ffffff" stroke="#ffffff" fill-opacity="1" stroke-opacity="1"/><path d="M-52,-33L44,-12L133,-80Z" fill="#fdfdfd" stroke="#fdfdfd" fill-opacity="1" stroke-opacity="1"/><path d="M44,-12L-48,26L35,74Z" fill="#ffffff" stroke="#ffffff" fill-opacity="1" stroke-opacity="1"/><path d="M44,-12L35,74L92,107Z" fill="#fdfdfd" stroke="#fdfdfd" fill-opacity="1" stroke-opacity="1"/><path d="M44,-12L92,107L172,65Z" fill="#fafafa" stroke="#fafafa" fill-opacity="1" stroke-opacity="1"/><path d="M44,-12L172,65L133,-80Z" fill="#fafafa" stroke="#fafafa" fill-opacity="1" stroke-opacity="1"/><path d="M133,-80L172,65L218,22Z" fill="#f7f7f7" stroke="#f7f7f7" fill-opacity="1" stroke-opacity="1"/><path d="M133,-80L218,22L251,-67Z" fill="#f5f5f5" stroke="#f5f5f5" fill-opacity="1" stroke-opacity="1"/><path d="M133,-80L251,-67L687,-93Z" fill="#e9e9e9" stroke="#e9e9e9" fill-opacity="1" stroke-opacity="1"/><path d="M251,-67L218,22L326,-46Z" fill="#f0f0f0" stroke="#f0f0f0" fill-opacity="1" stroke-opacity="1"/><path d="M251,-67L326,-46L548,-61Z" fill="#e7e7e7" stroke="#e7e7e7" fill-opacity="1" stroke-opacity="1"/><path d="M251,-67L548,-61L687,-93Z" fill="#dcdcdc" stroke="#dcdcdc" fill-opacity="1" stroke-opacity="1"/><path d="M326,-46L218,22L352,75Z" fill="#eeeeee" stroke="#eeeeee" fill-opacity="1" stroke-opacity="1"/><path d="M326,-46L352,75L453,-9Z" fill="#e7e7e7" stroke="#e7e7e7" fill-opacity="1" stroke-opacity="1"/><path d="M326,-46L453,-9L548,-61Z" fill="#e2e2e2" stroke="#e2e2e2" fill-opacity="1" stroke-opacity="1"/><path d="M453,-9L352,75L454,48Z" fill="#e4e4e4" stroke="#e4e4e4" fill-opacity="1" stroke-opacity="1"/><path d="M453,-9L454,48L548,57Z" fill="#dedede" stroke="#dedede" fill-opacity="1" stroke-opacity="1"/><path d="M453,-9L548,57L548,-61Z" fill="#dadada" stroke="#dadada" fill-opacity="1" stroke-opacity="1"/><path d="M548,-61L548,57L643,83Z" fill="#d2d2d2" stroke="#d2d2d2" fill-opacity="1" stroke-opacity="1"/><path d="M548,-61L643,83L687,-93Z" fill="#cccccc" stroke="#cccccc" fill-opacity="1" stroke-opacity="1"/><path d="M687,-93L643,83L768,-49Z" fill="#c4c4c4" stroke="#c4c4c4" fill-opacity="1" stroke-opacity="1"/><path d="M687,-93L768,-49L883,-83Z" fill="#bcbcbc" stroke="#bcbcbc" fill-opacity="1" stroke-opacity="1"/><path d="M687,-93L883,-83L1544,-88Z" fill="#9e9e9e" stroke="#9e9e9e" fill-opacity="1" stroke-opacity="1"/><path d="M768,-49L643,83L775,53Z" fill="#c1c1c1" stroke="#c1c1c1" fill-opacity="1" stroke-opacity="1"/><path d="M768,-49L775,53L845,41Z" fill="#bababa" stroke="#bababa" fill-opacity="1" stroke-opacity="1"/><path d="M768,-49L845,41L883,-83Z" fill="#b6b6b6" stroke="#b6b6b6" fill-opacity="1" stroke-opacity="1"/><path d="M883,-83L845,41L959,11Z" fill="#afafaf" stroke="#afafaf" fill-opacity="1" stroke-opacity="1"/><path d="M883,-83L959,11L982,-72Z" fill="#ababab" stroke="#ababab" fill-opacity="1" stroke-opacity="1"/><path d="M883,-83L982,-72L1544,-88Z" fill="#909090" stroke="#909090" fill-opacity="1" stroke-opacity="1"/><path d="M982,-72L959,11L1026,-60Z" fill="#a5a5a5" stroke="#a5a5a5" fill-opacity="1" stroke-opacity="1"/><path d="M982,-72L1026,-60L1356,-45Z" fill="#929292" stroke="#929292" fill-opacity="1" stroke-opacity="1"/><path d="M982,-72L1356,-45L1544,-88Z" fill="#808080" stroke="#808080" fill-opacity="1" stroke-opacity="1"/><path d="M1026,-60L959,11L1031,12Z" fill="#a2a2a2" stroke="#a2a2a2" fill-opacity="1" stroke-opacity="1"/><path d="M1026,-60L1031,12L1153,46Z" fill="#999999" stroke="#999999" fill-opacity="1" stroke-opacity="1"/><path d="M1026,-60L1153,46L1194,-7Z" fill="#929292" stroke="#929292" fill-opacity="1" stroke-opacity="1"/><path d="M1026,-60L1194,-7L1247,-34Z" fill="#8e8e8e" stroke="#8e8e8e" fill-opacity="1" stroke-opacity="1"/><path d="M1026,-60L1247,-34L1356,-45Z" fill="#888888" stroke="#888888" fill-opacity="1" stroke-opacity="1"/><path d="M1194,-7L1153,46L1292,12Z" fill="#878787" stroke="#878787" fill-opacity="1" stroke-opacity="1"/><path d="M1194,-7L1292,12L1247,-34Z" fill="#848484" stroke="#848484" fill-opacity="1" stroke-opacity="1"/><path d="M1247,-34L1292,12L1356,-45Z" fill="#808080" stroke="#808080" fill-opacity="1" stroke-opacity="1"/><path d="M1356,-45L1292,12L1336,65Z" fill="#808080" stroke="#808080" fill-opacity="1" stroke-opacity="1"/><path d="M1356,-45L1336,65L1474,-47Z" fill="#808080" stroke="#808080" fill-opacity="1" stroke-opacity="1"/><path d="M1356,-45L1474,-47L1544,-88Z" fill="#808080" stroke="#808080" fill-opacity="1" stroke-opacity="1"/><path d="M1474,-47L1336,65L1494,91Z" fill="#808080" stroke="#808080" fill-opacity="1" stroke-opacity="1"/><path d="M1474,-47L1494,91L1545,46Z" fill="#808080" stroke="#808080" fill-opacity="1" stroke-opacity="1"/><path d="M1474,-47L1545,46L1544,-88Z" fill="#808080" stroke="#808080" fill-opacity="1" stroke-opacity="1"/><path d="M1544,-88L1545,46L1588,151Z" fill="#808080" stroke="#808080" fill-opacity="1" stroke-opacity="1"/><path d="M-48,26L-88,220L-46,171Z" fill="#ffffff" stroke="#ffffff" fill-opacity="1" stroke-opacity="1"/><path d="M-48,26L-46,171L35,74Z" fill="#ffffff" stroke="#ffffff" fill-opacity="1" stroke-opacity="1"/><path d="M35,74L-46,171L92,107Z" fill="#fefefe" stroke="#fefefe" fill-opacity="1" stroke-opacity="1"/><path d="M172,65L92,107L153,116Z" fill="#f9f9f9" stroke="#f9f9f9" fill-opacity="1" stroke-opacity="1"/><path d="M172,65L153,116L260,108Z" fill="#f5f5f5" stroke="#f5f5f5" fill-opacity="1" stroke-opacity="1"/><path d="M172,65L260,108L218,22Z" fill="#f4f4f4" stroke="#f4f4f4" fill-opacity="1" stroke-opacity="1"/><path d="M218,22L260,108L352,75Z" fill="#efefef" stroke="#efefef" fill-opacity="1" stroke-opacity="1"/><path d="M352,75L260,108L353,119Z" fill="#ececec" stroke="#ececec" fill-opacity="1" stroke-opacity="1"/><path d="M352,75L353,119L436,114Z" fill="#e7e7e7" stroke="#e7e7e7" fill-opacity="1" stroke-opacity="1"/><path d="M352,75L436,114L454,48Z" fill="#e4e4e4" stroke="#e4e4e4" fill-opacity="1" stroke-opacity="1"/><path d="M454,48L436,114L548,57Z" fill="#dedede" stroke="#dedede" fill-opacity="1" stroke-opacity="1"/><path d="M548,57L436,114L540,179Z" fill="#dbdbdb" stroke="#dbdbdb" fill-opacity="1" stroke-opacity="1"/><path d="M548,57L540,179L643,83Z" fill="#d2d2d2" stroke="#d2d2d2" fill-opacity="1" stroke-opacity="1"/><path d="M643,83L540,179L660,117Z" fill="#cecece" stroke="#cecece" fill-opacity="1" stroke-opacity="1"/><path d="M643,83L660,117L775,53Z" fill="#c5c5c5" stroke="#c5c5c5" fill-opacity="1" stroke-opacity="1"/><path d="M775,53L660,117L713,168Z" fill="#c2c2c2" stroke="#c2c2c2" fill-opacity="1" stroke-opacity="1"/><path d="M775,53L713,168L857,126Z" fill="#bbbbbb" stroke="#bbbbbb" fill-opacity="1" stroke-opacity="1"/><path d="M775,53L857,126L845,41Z" fill="#b7b7b7" stroke="#b7b7b7" fill-opacity="1" stroke-opacity="1"/><path d="M845,41L857,126L959,11Z" fill="#b0b0b0" stroke="#b0b0b0" fill-opacity="1" stroke-opacity="1"/><path d="M959,11L857,126L938,157Z" fill="#adadad" stroke="#adadad" fill-opacity="1" stroke-opacity="1"/><path d="M959,11L938,157L1031,12Z" fill="#a7a7a7" stroke="#a7a7a7" fill-opacity="1" stroke-opacity="1"/><path d="M1031,12L938,157L1081,116Z" fill="#a1a1a1" stroke="#a1a1a1" fill-opacity="1" stroke-opacity="1"/><path d="M1031,12L1081,116L1153,46Z" fill="#979797" stroke="#979797" fill-opacity="1" stroke-opacity="1"/><path d="M1153,46L1081,116L1139,183Z" fill="#929292" stroke="#929292" fill-opacity="1" stroke-opacity="1"/><path d="M1153,46L1139,183L1258,160Z" fill="#8b8b8b" stroke="#8b8b8b" fill-opacity="1" stroke-opacity="1"/><path d="M1153,46L1258,160L1292,12Z" fill="#858585" stroke="#858585" fill-opacity="1" stroke-opacity="1"/><path d="M1292,12L1258,160L1336,65Z" fill="#808080" stroke="#808080" fill-opacity="1" stroke-opacity="1"/><path d="M1336,65L1258,160L1326,184Z" fill="#808080" stroke="#808080" fill-opacity="1" stroke-opacity="1"/><path d="M1336,65L1326,184L1454,184Z" fill="#808080" stroke="#808080" fill-opacity="1" stroke-opacity="1"/><path d="M1336,65L1454,184L1494,91Z" fill="#808080" stroke="#808080" fill-opacity="1" stroke-opacity="1"/><path d="M1494,91L1454,184L1588,151Z" fill="#808080" stroke="#808080" fill-opacity="1" stroke-opacity="1"/><path d="M1494,91L1588,151L1545,46Z" fill="#808080" stroke="#808080" fill-opacity="1" stroke-opacity="1"/><path d="M-46,171L-88,220L43,258Z" fill="#f3f3f3" stroke="#f3f3f3" fill-opacity="1" stroke-opacity="1"/><path d="M-46,171L43,258L92,107Z" fill="#f9f9f9" stroke="#f9f9f9" fill-opacity="1" stroke-opacity="1"/><path d="M92,107L43,258L129,242Z" fill="#f2f2f2" stroke="#f2f2f2" fill-opacity="1" stroke-opacity="1"/><path d="M92,107L129,242L153,116Z" fill="#f9f9f9" stroke="#f9f9f9" fill-opacity="1" stroke-opacity="1"/><path d="M153,116L129,242L231,273Z" fill="#ececec" stroke="#ececec" fill-opacity="1" stroke-opacity="1"/><path d="M153,116L231,273L260,108Z" fill="#f1f1f1" stroke="#f1f1f1" fill-opacity="1" stroke-opacity="1"/><path d="M260,108L231,273L319,283Z" fill="#e3e3e3" stroke="#e3e3e3" fill-opacity="1" stroke-opacity="1"/><path d="M260,108L319,283L353,119Z" fill="#eaeaea" stroke="#eaeaea" fill-opacity="1" stroke-opacity="1"/><path d="M353,119L319,283L468,287Z" fill="#d8d8d8" stroke="#d8d8d8" fill-opacity="1" stroke-opacity="1"/><path d="M353,119L468,287L436,114Z" fill="#e0e0e0" stroke="#e0e0e0" fill-opacity="1" stroke-opacity="1"/><path d="M436,114L468,287L540,179Z" fill="#d6d6d6" stroke="#d6d6d6" fill-opacity="1" stroke-opacity="1"/><path d="M540,179L468,287L553,212Z" fill="#cbcbcb" stroke="#cbcbcb" fill-opacity="1" stroke-opacity="1"/><path d="M540,179L553,212L660,117Z" fill="#cfcfcf" stroke="#cfcfcf" fill-opacity="1" stroke-opacity="1"/><path d="M660,117L553,212L713,168Z" fill="#c8c8c8" stroke="#c8c8c8" fill-opacity="1" stroke-opacity="1"/><path d="M713,168L553,212L676,288Z" fill="#bcbcbc" stroke="#bcbcbc" fill-opacity="1" stroke-opacity="1"/><path d="M713,168L676,288L787,274Z" fill="#aeaeae" stroke="#aeaeae" fill-opacity="1" stroke-opacity="1"/><path d="M713,168L787,274L876,220Z" fill="#adadad" stroke="#adadad" fill-opacity="1" stroke-opacity="1"/><path d="M713,168L876,220L857,126Z" fill="#b4b4b4" stroke="#b4b4b4" fill-opacity="1" stroke-opacity="1"/><path d="M857,126L876,220L938,157Z" fill="#adadad" stroke="#adadad" fill-opacity="1" stroke-opacity="1"/><path d="M938,157L876,220L928,287Z" fill="#a0a0a0" stroke="#a0a0a0" fill-opacity="1" stroke-opacity="1"/><path d="M938,157L928,287L1066,289Z" fill="#939393" stroke="#939393" fill-opacity="1" stroke-opacity="1"/><path d="M938,157L1066,289L1081,116Z" fill="#999999" stroke="#999999" fill-opacity="1" stroke-opacity="1"/><path d="M1081,116L1066,289L1139,183Z" fill="#8d8d8d" stroke="#8d8d8d" fill-opacity="1" stroke-opacity="1"/><path d="M1139,183L1066,289L1188,258Z" fill="#7e7e7e" stroke="#7e7e7e" fill-opacity="1" stroke-opacity="1"/><path d="M1139,183L1188,258L1258,160Z" fill="#818181" stroke="#818181" fill-opacity="1" stroke-opacity="1"/><path d="M1258,160L1188,258L1265,264Z" fill="#767676" stroke="#767676" fill-opacity="1" stroke-opacity="1"/><path d="M1258,160L1265,264L1326,184Z" fill="#767676" stroke="#767676" fill-opacity="1" stroke-opacity="1"/><path d="M1326,184L1265,264L1313,268Z" fill="#6e6e6e" stroke="#6e6e6e" fill-opacity="1" stroke-opacity="1"/><path d="M1326,184L1313,268L1452,268Z" fill="#6e6e6e" stroke="#6e6e6e" fill-opacity="1" stroke-opacity="1"/><path d="M1326,184L1452,268L1454,184Z" fill="#747474" stroke="#747474" fill-opacity="1" stroke-opacity="1"/><path d="M1454,184L1452,268L1542,230Z" fill="#717171" stroke="#717171" fill-opacity="1" stroke-opacity="1"/><path d="M1454,184L1542,230L1588,151Z" fill="#797979" stroke="#797979" fill-opacity="1" stroke-opacity="1"/><path d="M1588,151L1542,230L1547,373Z" fill="#6a6a6a" stroke="#6a6a6a" fill-opacity="1" stroke-opacity="1"/><path d="M1588,151L1547,373L1566,458Z" fill="#545454" stroke="#545454" fill-opacity="1" stroke-opacity="1"/><path d="M1588,151L1566,458L1574,749Z" fill="#333333" stroke="#333333" fill-opacity="1" stroke-opacity="1"/><path d="M-88,220L-60,705L-52,383Z" fill="#b7b7b7" stroke="#b7b7b7" fill-opacity="1" stroke-opacity="1"/><path d="M-88,220L-52,383L23,333Z" fill="#d8d8d8" stroke="#d8d8d8" fill-opacity="1" stroke-opacity="1"/><path d="M-88,220L23,333L43,258Z" fill="#e4e4e4" stroke="#e4e4e4" fill-opacity="1" stroke-opacity="1"/><path d="M43,258L23,333L129,242Z" fill="#dfdfdf" stroke="#dfdfdf" fill-opacity="1" stroke-opacity="1"/><path d="M129,242L23,333L180,361Z" fill="#d3d3d3" stroke="#d3d3d3" fill-opacity="1" stroke-opacity="1"/><path d="M129,242L180,361L231,273Z" fill="#d5d5d5" stroke="#d5d5d5" fill-opacity="1" stroke-opacity="1"/><path d="M231,273L180,361L275,313Z" fill="#cacaca" stroke="#cacaca" fill-opacity="1" stroke-opacity="1"/><path d="M231,273L275,313L319,283Z" fill="#cecece" stroke="#cecece" fill-opacity="1" stroke-opacity="1"/><path d="M319,283L275,313L388,367Z" fill="#c2c2c2" stroke="#c2c2c2" fill-opacity="1" stroke-opacity="1"/><path d="M319,283L388,367L468,287Z" fill="#bebebe" stroke="#bebebe" fill-opacity="1" stroke-opacity="1"/><path d="M468,287L388,367L443,372Z" fill="#b3b3b3" stroke="#b3b3b3" fill-opacity="1" stroke-opacity="1"/><path d="M468,287L443,372L521,395Z" fill="#acacac" stroke="#acacac" fill-opacity="1" stroke-opacity="1"/><path d="M468,287L521,395L636,353Z" fill="#a6a6a6" stroke="#a6a6a6" fill-opacity="1" stroke-opacity="1"/><path d="M468,287L636,353L553,212Z" fill="#b6b6b6" stroke="#b6b6b6" fill-opacity="1" stroke-opacity="1"/><path d="M553,212L636,353L676,288Z" fill="#aeaeae" stroke="#aeaeae" fill-opacity="1" stroke-opacity="1"/><path d="M676,288L636,353L794,372Z" fill="#959595" stroke="#959595" fill-opacity="1" stroke-opacity="1"/><path d="M676,288L794,372L787,274Z" fill="#979797" stroke="#979797" fill-opacity="1" stroke-opacity="1"/><path d="M787,274L794,372L866,353Z" fill="#8b8b8b" stroke="#8b8b8b" fill-opacity="1" stroke-opacity="1"/><path d="M787,274L866,353L876,220Z" fill="#969696" stroke="#969696" fill-opacity="1" stroke-opacity="1"/><path d="M876,220L866,353L928,287Z" fill="#909090" stroke="#909090" fill-opacity="1" stroke-opacity="1"/><path d="M928,287L866,353L930,381Z" fill="#7f7f7f" stroke="#7f7f7f" fill-opacity="1" stroke-opacity="1"/><path d="M928,287L930,381L1073,354Z" fill="#777777" stroke="#777777" fill-opacity="1" stroke-opacity="1"/><path d="M928,287L1073,354L1066,289Z" fill="#797979" stroke="#797979" fill-opacity="1" stroke-opacity="1"/><path d="M1066,289L1073,354L1120,335Z" fill="#6c6c6c" stroke="#6c6c6c" fill-opacity="1" stroke-opacity="1"/><path d="M1066,289L1120,335L1188,258Z" fill="#707070" stroke="#707070" fill-opacity="1" stroke-opacity="1"/><path d="M1188,258L1120,335L1175,416Z" fill="#606060" stroke="#606060" fill-opacity="1" stroke-opacity="1"/><path d="M1188,258L1175,416L1270,387Z" fill="#555555" stroke="#555555" fill-opacity="1" stroke-opacity="1"/><path d="M1188,258L1270,387L1265,264Z" fill="#5f5f5f" stroke="#5f5f5f" fill-opacity="1" stroke-opacity="1"/><path d="M1265,264L1270,387L1323,334Z" fill="#545454" stroke="#545454" fill-opacity="1" stroke-opacity="1"/><path d="M1265,264L1323,334L1313,268Z" fill="#5f5f5f" stroke="#5f5f5f" fill-opacity="1" stroke-opacity="1"/><path d="M1313,268L1323,334L1452,268Z" fill="#5f5f5f" stroke="#5f5f5f" fill-opacity="1" stroke-opacity="1"/><path d="M1452,268L1323,334L1447,331Z" fill="#595959" stroke="#595959" fill-opacity="1" stroke-opacity="1"/><path d="M1452,268L1447,331L1547,373Z" fill="#555555" stroke="#555555" fill-opacity="1" stroke-opacity="1"/><path d="M1452,268L1547,373L1542,230Z" fill="#5f5f5f" stroke="#5f5f5f" fill-opacity="1" stroke-opacity="1"/><path d="M-52,383L-60,705L-37,459Z" fill="#9d9d9d" stroke="#9d9d9d" fill-opacity="1" stroke-opacity="1"/><path d="M-52,383L-37,459L20,466Z" fill="#b7b7b7" stroke="#b7b7b7" fill-opacity="1" stroke-opacity="1"/><path d="M-52,383L20,466L23,333Z" fill="#c2c2c2" stroke="#c2c2c2" fill-opacity="1" stroke-opacity="1"/><path d="M23,333L20,466L180,361Z" fill="#c0c0c0" stroke="#c0c0c0" fill-opacity="1" stroke-opacity="1"/><path d="M180,361L20,466L191,405Z" fill="#b7b7b7" stroke="#b7b7b7" fill-opacity="1" stroke-opacity="1"/><path d="M180,361L191,405L275,313Z" fill="#bfbfbf" stroke="#bfbfbf" fill-opacity="1" stroke-opacity="1"/><path d="M275,313L191,405L281,471Z" fill="#b3b3b3" stroke="#b3b3b3" fill-opacity="1" stroke-opacity="1"/><path d="M275,313L281,471L366,414Z" fill="#aeaeae" stroke="#aeaeae" fill-opacity="1" stroke-opacity="1"/><path d="M275,313L366,414L388,367Z" fill="#b5b5b5" stroke="#b5b5b5" fill-opacity="1" stroke-opacity="1"/><path d="M388,367L366,414L443,372Z" fill="#aaaaaa" stroke="#aaaaaa" fill-opacity="1" stroke-opacity="1"/><path d="M443,372L366,414L475,433Z" fill="#a2a2a2" stroke="#a2a2a2" fill-opacity="1" stroke-opacity="1"/><path d="M443,372L475,433L521,395Z" fill="#9f9f9f" stroke="#9f9f9f" fill-opacity="1" stroke-opacity="1"/><path d="M521,395L475,433L574,410Z" fill="#969696" stroke="#969696" fill-opacity="1" stroke-opacity="1"/><path d="M521,395L574,410L636,353Z" fill="#979797" stroke="#979797" fill-opacity="1" stroke-opacity="1"/><path d="M636,353L574,410L657,445Z" fill="#8d8d8d" stroke="#8d8d8d" fill-opacity="1" stroke-opacity="1"/><path d="M636,353L657,445L765,433Z" fill="#848484" stroke="#848484" fill-opacity="1" stroke-opacity="1"/><path d="M636,353L765,433L794,372Z" fill="#858585" stroke="#858585" fill-opacity="1" stroke-opacity="1"/><path d="M794,372L765,433L893,433Z" fill="#757575" stroke="#757575" fill-opacity="1" stroke-opacity="1"/><path d="M794,372L893,433L866,353Z" fill="#787878" stroke="#787878" fill-opacity="1" stroke-opacity="1"/><path d="M866,353L893,433L930,381Z" fill="#737373" stroke="#737373" fill-opacity="1" stroke-opacity="1"/><path d="M930,381L893,433L937,463Z" fill="#676767" stroke="#676767" fill-opacity="1" stroke-opacity="1"/><path d="M930,381L937,463L1035,482Z" fill="#5e5e5e" stroke="#5e5e5e" fill-opacity="1" stroke-opacity="1"/><path d="M930,381L1035,482L1073,354Z" fill="#616161" stroke="#616161" fill-opacity="1" stroke-opacity="1"/><path d="M1073,354L1035,482L1175,416Z" fill="#525252" stroke="#525252" fill-opacity="1" stroke-opacity="1"/><path d="M1073,354L1175,416L1120,335Z" fill="#5b5b5b" stroke="#5b5b5b" fill-opacity="1" stroke-opacity="1"/><path d="M1270,387L1175,416L1224,476Z" fill="#404040" stroke="#404040" fill-opacity="1" stroke-opacity="1"/><path d="M1270,387L1224,476L1383,446Z" fill="#373737" stroke="#373737" fill-opacity="1" stroke-opacity="1"/><path d="M1270,387L1383,446L1323,334Z" fill="#434343" stroke="#434343" fill-opacity="1" stroke-opacity="1"/><path d="M1323,334L1383,446L1432,410Z" fill="#424242" stroke="#424242" fill-opacity="1" stroke-opacity="1"/><path d="M1323,334L1432,410L1447,331Z" fill="#4c4c4c" stroke="#4c4c4c" fill-opacity="1" stroke-opacity="1"/><path d="M1447,331L1432,410L1547,373Z" fill="#484848" stroke="#484848" fill-opacity="1" stroke-opacity="1"/><path d="M1547,373L1432,410L1566,458Z" fill="#3d3d3d" stroke="#3d3d3d" fill-opacity="1" stroke-opacity="1"/><path d="M-37,459L-60,705L-34,626Z" fill="#909090" stroke="#909090" fill-opacity="1" stroke-opacity="1"/><path d="M-37,459L-34,626L-16,505Z" fill="#989898" stroke="#989898" fill-opacity="1" stroke-opacity="1"/><path d="M-37,459L-16,505L20,466Z" fill="#ababab" stroke="#ababab" fill-opacity="1" stroke-opacity="1"/><path d="M20,466L-16,505L87,576Z" fill="#9c9c9c" stroke="#9c9c9c" fill-opacity="1" stroke-opacity="1"/><path d="M20,466L87,576L173,519Z" fill="#979797" stroke="#979797" fill-opacity="1" stroke-opacity="1"/><path d="M20,466L173,519L191,405Z" fill="#aaaaaa" stroke="#aaaaaa" fill-opacity="1" stroke-opacity="1"/><path d="M191,405L173,519L281,471Z" fill="#a4a4a4" stroke="#a4a4a4" fill-opacity="1" stroke-opacity="1"/><path d="M281,471L173,519L213,555Z" fill="#929292" stroke="#929292" fill-opacity="1" stroke-opacity="1"/><path d="M281,471L213,555L315,565Z" fill="#898989" stroke="#898989" fill-opacity="1" stroke-opacity="1"/><path d="M281,471L315,565L428,516Z" fill="#888888" stroke="#888888" fill-opacity="1" stroke-opacity="1"/><path d="M281,471L428,516L366,414Z" fill="#989898" stroke="#989898" fill-opacity="1" stroke-opacity="1"/><path d="M366,414L428,516L475,433Z" fill="#969696" stroke="#969696" fill-opacity="1" stroke-opacity="1"/><path d="M475,433L428,516L569,541Z" fill="#828282" stroke="#828282" fill-opacity="1" stroke-opacity="1"/><path d="M475,433L569,541L574,410Z" fill="#898989" stroke="#898989" fill-opacity="1" stroke-opacity="1"/><path d="M574,410L569,541L657,445Z" fill="#808080" stroke="#808080" fill-opacity="1" stroke-opacity="1"/><path d="M657,445L569,541L667,546Z" fill="#6c6c6c" stroke="#6c6c6c" fill-opacity="1" stroke-opacity="1"/><path d="M657,445L667,546L731,534Z" fill="#666666" stroke="#666666" fill-opacity="1" stroke-opacity="1"/><path d="M657,445L731,534L765,433Z" fill="#707070" stroke="#707070" fill-opacity="1" stroke-opacity="1"/><path d="M765,433L731,534L820,548Z" fill="#5e5e5e" stroke="#5e5e5e" fill-opacity="1" stroke-opacity="1"/><path d="M765,433L820,548L893,433Z" fill="#646464" stroke="#646464" fill-opacity="1" stroke-opacity="1"/><path d="M893,433L820,548L937,463Z" fill="#5b5b5b" stroke="#5b5b5b" fill-opacity="1" stroke-opacity="1"/><path d="M937,463L820,548L969,586Z" fill="#474747" stroke="#474747" fill-opacity="1" stroke-opacity="1"/><path d="M937,463L969,586L1035,482Z" fill="#464646" stroke="#464646" fill-opacity="1" stroke-opacity="1"/><path d="M1035,482L969,586L1088,548Z" fill="#353535" stroke="#353535" fill-opacity="1" stroke-opacity="1"/><path d="M1035,482L1088,548L1175,416Z" fill="#3f3f3f" stroke="#3f3f3f" fill-opacity="1" stroke-opacity="1"/><path d="M1175,416L1088,548L1224,476Z" fill="#383838" stroke="#383838" fill-opacity="1" stroke-opacity="1"/><path d="M1224,476L1088,548L1165,579Z" fill="#252525" stroke="#252525" fill-opacity="1" stroke-opacity="1"/><path d="M1224,476L1165,579L1256,552Z" fill="#1e1e1e" stroke="#1e1e1e" fill-opacity="1" stroke-opacity="1"/><path d="M1224,476L1256,552L1317,569Z" fill="#1a1a1a" stroke="#1a1a1a" fill-opacity="1" stroke-opacity="1"/><path d="M1224,476L1317,569L1383,446Z" fill="#242424" stroke="#242424" fill-opacity="1" stroke-opacity="1"/><path d="M1383,446L1317,569L1491,566Z" fill="#1a1a1a" stroke="#1a1a1a" fill-opacity="1" stroke-opacity="1"/><path d="M1383,446L1491,566L1432,410Z" fill="#2d2d2d" stroke="#2d2d2d" fill-opacity="1" stroke-opacity="1"/><path d="M1432,410L1491,566L1566,458Z" fill="#2b2b2b" stroke="#2b2b2b" fill-opacity="1" stroke-opacity="1"/><path d="M1566,458L1491,566L1552,578Z" fill="#171717" stroke="#171717" fill-opacity="1" stroke-opacity="1"/><path d="M1566,458L1552,578L1567,693Z" fill="#131313" stroke="#131313" fill-opacity="1" stroke-opacity="1"/><path d="M1566,458L1567,693L1574,749Z" fill="#0e0e0e" stroke="#0e0e0e" fill-opacity="1" stroke-opacity="1"/><path d="M-16,505L-34,626L87,576Z" fill="#929292" stroke="#929292" fill-opacity="1" stroke-opacity="1"/><path d="M87,576L-34,626L87,634Z" fill="#8d8d8d" stroke="#8d8d8d" fill-opacity="1" stroke-opacity="1"/><path d="M87,576L87,634L143,634Z" fill="#8a8a8a" stroke="#8a8a8a" fill-opacity="1" stroke-opacity="1"/><path d="M87,576L143,634L173,519Z" fill="#8c8c8c" stroke="#8c8c8c" fill-opacity="1" stroke-opacity="1"/><path d="M173,519L143,634L213,555Z" fill="#8a8a8a" stroke="#8a8a8a" fill-opacity="1" stroke-opacity="1"/><path d="M213,555L143,634L213,625Z" fill="#868686" stroke="#868686" fill-opacity="1" stroke-opacity="1"/><path d="M213,555L213,625L315,565Z" fill="#848484" stroke="#848484" fill-opacity="1" stroke-opacity="1"/><path d="M315,565L213,625L369,669Z" fill="#7d7d7d" stroke="#7d7d7d" fill-opacity="1" stroke-opacity="1"/><path d="M315,565L369,669L428,516Z" fill="#7a7a7a" stroke="#7a7a7a" fill-opacity="1" stroke-opacity="1"/><path d="M428,516L369,669L414,675Z" fill="#747474" stroke="#747474" fill-opacity="1" stroke-opacity="1"/><path d="M428,516L414,675L506,620Z" fill="#717171" stroke="#717171" fill-opacity="1" stroke-opacity="1"/><path d="M428,516L506,620L569,541Z" fill="#707070" stroke="#707070" fill-opacity="1" stroke-opacity="1"/><path d="M569,541L506,620L623,647Z" fill="#646464" stroke="#646464" fill-opacity="1" stroke-opacity="1"/><path d="M569,541L623,647L667,546Z" fill="#606060" stroke="#606060" fill-opacity="1" stroke-opacity="1"/><path d="M667,546L623,647L786,638Z" fill="#555555" stroke="#555555" fill-opacity="1" stroke-opacity="1"/><path d="M667,546L786,638L731,534Z" fill="#555555" stroke="#555555" fill-opacity="1" stroke-opacity="1"/><path d="M731,534L786,638L820,548Z" fill="#4f4f4f" stroke="#4f4f4f" fill-opacity="1" stroke-opacity="1"/><path d="M820,548L786,638L867,643Z" fill="#474747" stroke="#474747" fill-opacity="1" stroke-opacity="1"/><path d="M820,548L867,643L969,586Z" fill="#424242" stroke="#424242" fill-opacity="1" stroke-opacity="1"/><path d="M969,586L867,643L990,693Z" fill="#383838" stroke="#383838" fill-opacity="1" stroke-opacity="1"/><path d="M969,586L990,693L1049,686Z" fill="#2f2f2f" stroke="#2f2f2f" fill-opacity="1" stroke-opacity="1"/><path d="M969,586L1049,686L1088,548Z" fill="#2e2e2e" stroke="#2e2e2e" fill-opacity="1" stroke-opacity="1"/><path d="M1088,548L1049,686L1160,666Z" fill="#232323" stroke="#232323" fill-opacity="1" stroke-opacity="1"/><path d="M1088,548L1160,666L1165,579Z" fill="#212121" stroke="#212121" fill-opacity="1" stroke-opacity="1"/><path d="M1165,579L1160,666L1256,552Z" fill="#1b1b1b" stroke="#1b1b1b" fill-opacity="1" stroke-opacity="1"/><path d="M1256,552L1160,666L1295,674Z" fill="#131313" stroke="#131313" fill-opacity="1" stroke-opacity="1"/><path d="M1256,552L1295,674L1317,569Z" fill="#111111" stroke="#111111" fill-opacity="1" stroke-opacity="1"/><path d="M1317,569L1295,674L1362,658Z" fill="#0d0d0d" stroke="#0d0d0d" fill-opacity="1" stroke-opacity="1"/><path d="M1317,569L1362,658L1491,566Z" fill="#111111" stroke="#111111" fill-opacity="1" stroke-opacity="1"/><path d="M1491,566L1362,658L1485,695Z" fill="#0d0d0d" stroke="#0d0d0d" fill-opacity="1" stroke-opacity="1"/><path d="M1491,566L1485,695L1552,578Z" fill="#0f0f0f" stroke="#0f0f0f" fill-opacity="1" stroke-opacity="1"/><path d="M1552,578L1485,695L1567,693Z" fill="#0c0c0c" stroke="#0c0c0c" fill-opacity="1" stroke-opacity="1"/><path d="M-34,626L-60,705L22,755Z" fill="#878787" stroke="#878787" fill-opacity="1" stroke-opacity="1"/><path d="M-34,626L22,755L87,634Z" fill="#898989" stroke="#898989" fill-opacity="1" stroke-opacity="1"/><path d="M87,634L22,755L113,778Z" fill="#818181" stroke="#818181" fill-opacity="1" stroke-opacity="1"/><path d="M87,634L113,778L143,634Z" fill="#838383" stroke="#838383" fill-opacity="1" stroke-opacity="1"/><path d="M143,634L113,778L250,736Z" fill="#7d7d7d" stroke="#7d7d7d" fill-opacity="1" stroke-opacity="1"/><path d="M143,634L250,736L213,625Z" fill="#808080" stroke="#808080" fill-opacity="1" stroke-opacity="1"/><path d="M213,625L250,736L369,669Z" fill="#797979" stroke="#797979" fill-opacity="1" stroke-opacity="1"/><path d="M369,669L250,736L380,745Z" fill="#717171" stroke="#717171" fill-opacity="1" stroke-opacity="1"/><path d="M369,669L380,745L414,675Z" fill="#6e6e6e" stroke="#6e6e6e" fill-opacity="1" stroke-opacity="1"/><path d="M414,675L380,745L428,706Z" fill="#6c6c6c" stroke="#6c6c6c" fill-opacity="1" stroke-opacity="1"/><path d="M414,675L428,706L506,620Z" fill="#6b6b6b" stroke="#6b6b6b" fill-opacity="1" stroke-opacity="1"/><path d="M506,620L428,706L544,731Z" fill="#666666" stroke="#666666" fill-opacity="1" stroke-opacity="1"/><path d="M506,620L544,731L623,647Z" fill="#606060" stroke="#606060" fill-opacity="1" stroke-opacity="1"/><path d="M623,647L544,731L634,776Z" fill="#565656" stroke="#565656" fill-opacity="1" stroke-opacity="1"/><path d="M623,647L634,776L706,740Z" fill="#4f4f4f" stroke="#4f4f4f" fill-opacity="1" stroke-opacity="1"/><path d="M623,647L706,740L786,638Z" fill="#4e4e4e" stroke="#4e4e4e" fill-opacity="1" stroke-opacity="1"/><path d="M786,638L706,740L820,768Z" fill="#434343" stroke="#434343" fill-opacity="1" stroke-opacity="1"/><path d="M786,638L820,768L867,643Z" fill="#404040" stroke="#404040" fill-opacity="1" stroke-opacity="1"/><path d="M867,643L820,768L917,756Z" fill="#383838" stroke="#383838" fill-opacity="1" stroke-opacity="1"/><path d="M867,643L917,756L990,693Z" fill="#343434" stroke="#343434" fill-opacity="1" stroke-opacity="1"/><path d="M990,693L917,756L1064,763Z" fill="#292929" stroke="#292929" fill-opacity="1" stroke-opacity="1"/><path d="M990,693L1064,763L1049,686Z" fill="#252525" stroke="#252525" fill-opacity="1" stroke-opacity="1"/><path d="M1049,686L1064,763L1168,741Z" fill="#1b1b1b" stroke="#1b1b1b" fill-opacity="1" stroke-opacity="1"/><path d="M1049,686L1168,741L1160,666Z" fill="#1a1a1a" stroke="#1a1a1a" fill-opacity="1" stroke-opacity="1"/><path d="M1160,666L1168,741L1295,674Z" fill="#111111" stroke="#111111" fill-opacity="1" stroke-opacity="1"/><path d="M1295,674L1168,741L1224,785Z" fill="#0a0a0a" stroke="#0a0a0a" fill-opacity="1" stroke-opacity="1"/><path d="M1295,674L1224,785L1324,713Z" fill="#050505" stroke="#050505" fill-opacity="1" stroke-opacity="1"/><path d="M1295,674L1324,713L1362,658Z" fill="#090909" stroke="#090909" fill-opacity="1" stroke-opacity="1"/><path d="M1362,658L1324,713L1485,695Z" fill="#080808" stroke="#080808" fill-opacity="1" stroke-opacity="1"/><path d="M1485,695L1324,713L1491,712Z" fill="#070707" stroke="#070707" fill-opacity="1" stroke-opacity="1"/><path d="M1485,695L1491,712L1567,693Z" fill="#070707" stroke="#070707" fill-opacity="1" stroke-opacity="1"/><path d="M1567,693L1491,712L1574,749Z" fill="#060606" stroke="#060606" fill-opacity="1" stroke-opacity="1"/><path d="M113,778L1224,785L634,776Z" fill="#494949" stroke="#494949" fill-opacity="1" stroke-opacity="1"/><path d="M113,778L634,776L380,745Z" fill="#696969" stroke="#696969" fill-opacity="1" stroke-opacity="1"/><path d="M113,778L380,745L250,736Z" fill="#747474" stroke="#747474" fill-opacity="1" stroke-opacity="1"/><path d="M380,745L634,776L544,731Z" fill="#5c5c5c" stroke="#5c5c5c" fill-opacity="1" stroke-opacity="1"/><path d="M380,745L544,731L428,706Z" fill="#666666" stroke="#666666" fill-opacity="1" stroke-opacity="1"/><path d="M634,776L1224,785L820,768Z" fill="#303030" stroke="#303030" fill-opacity="1" stroke-opacity="1"/><path d="M634,776L820,768L706,740Z" fill="#444444" stroke="#444444" fill-opacity="1" stroke-opacity="1"/><path d="M820,768L1224,785L1064,763Z" fill="#1f1f1f" stroke="#1f1f1f" fill-opacity="1" stroke-opacity="1"/><path d="M820,768L1064,763L917,756Z" fill="#2d2d2d" stroke="#2d2d2d" fill-opacity="1" stroke-opacity="1"/><path d="M1064,763L1224,785L1168,741Z" fill="#111111" stroke="#111111" fill-opacity="1" stroke-opacity="1"/><path d="M1224,785L1574,749L1491,712Z" fill="#030303" stroke="#030303" fill-opacity="1" stroke-opacity="1"/><path d="M1224,785L1491,712L1324,713Z" fill="#040404" stroke="#040404" fill-opacity="1" stroke-opacity="1"/></g></svg>