<svg width="1440" height="735" xmlns="http://www.w3.org/2000/svg"><g><path d="M-86,-106L-122,484L-82,185Z" fill="#e4f0fd" stroke="#e4f0fd" fill-opacity="1" stroke-opacity="1"/><path d="M-86,-106L-82,185L-49,127Z" fill="#f8f8fd" stroke="#f8f8fd" fill-opacity="1" stroke-opacity="1"/><path d="M-86,-106L-49,127L94,47Z" fill="#f7f7fb" stroke="#f7f7fb" fill-opacity="1" stroke-opacity="1"/><path d="M-86,-106L94,47L108,-115Z" fill="#f5f4f9" stroke="#f5f4f9" fill-opacity="1" stroke-opacity="1"/><path d="M108,-115L94,47L177,-108Z" fill="#edeff6" stroke="#edeff6" fill-opacity="1" stroke-opacity="1"/><path d="M108,-115L177,-108L1244,-128Z" fill="#c2d8e9" stroke="#c2d8e9" fill-opacity="1" stroke-opacity="1"/><path d="M177,-108L94,47L206,119Z" fill="#e8ecf5" stroke="#e8ecf5" fill-opacity="1" stroke-opacity="1"/><path d="M177,-108L206,119L366,-89Z" fill="#e2e7f2" stroke="#e2e7f2" fill-opacity="1" stroke-opacity="1"/><path d="M177,-108L366,-89L1244,-128Z" fill="#b7d3e7" stroke="#b7d3e7" fill-opacity="1" stroke-opacity="1"/><path d="M366,-89L206,119L434,89Z" fill="#d4e0ef" stroke="#d4e0ef" fill-opacity="1" stroke-opacity="1"/><path d="M366,-89L434,89L484,46Z" fill="#cbdbec" stroke="#cbdbec" fill-opacity="1" stroke-opacity="1"/><path d="M366,-89L484,46L580,-72Z" fill="#c6daea" stroke="#c6daea" fill-opacity="1" stroke-opacity="1"/><path d="M366,-89L580,-72L1244,-128Z" fill="#a6cce3" stroke="#a6cce3" fill-opacity="1" stroke-opacity="1"/><path d="M580,-72L484,46L679,133Z" fill="#b6d2e7" stroke="#b6d2e7" fill-opacity="1" stroke-opacity="1"/><path d="M580,-72L679,133L708,-57Z" fill="#b0d0e5" stroke="#b0d0e5" fill-opacity="1" stroke-opacity="1"/><path d="M580,-72L708,-57L1244,-128Z" fill="#98c7df" stroke="#98c7df" fill-opacity="1" stroke-opacity="1"/><path d="M708,-57L679,133L835,-22Z" fill="#a3cbe2" stroke="#a3cbe2" fill-opacity="1" stroke-opacity="1"/><path d="M708,-57L835,-22L933,-42Z" fill="#9ac8e0" stroke="#9ac8e0" fill-opacity="1" stroke-opacity="1"/><path d="M708,-57L933,-42L1244,-128Z" fill="#8fbdd6" stroke="#8fbdd6" fill-opacity="1" stroke-opacity="1"/><path d="M835,-22L679,133L869,129Z" fill="#96c5e1" stroke="#96c5e1" fill-opacity="1" stroke-opacity="1"/><path d="M835,-22L869,129L927,56Z" fill="#8fc2de" stroke="#8fc2de" fill-opacity="1" stroke-opacity="1"/><path d="M835,-22L927,56L933,-42Z" fill="#93c3dc" stroke="#93c3dc" fill-opacity="1" stroke-opacity="1"/><path d="M933,-42L927,56L1162,41Z" fill="#8ab8d3" stroke="#8ab8d3" fill-opacity="1" stroke-opacity="1"/><path d="M933,-42L1162,41L1176,-33Z" fill="#86b2cb" stroke="#86b2cb" fill-opacity="1" stroke-opacity="1"/><path d="M933,-42L1176,-33L1244,-128Z" fill="#84b0c9" stroke="#84b0c9" fill-opacity="1" stroke-opacity="1"/><path d="M1176,-33L1162,41L1306,18Z" fill="#7fa7c1" stroke="#7fa7c1" fill-opacity="1" stroke-opacity="1"/><path d="M1176,-33L1306,18L1244,-128Z" fill="#80a5bf" stroke="#80a5bf" fill-opacity="1" stroke-opacity="1"/><path d="M1244,-128L1306,18L1410,-61Z" fill="#809eb8" stroke="#809eb8" fill-opacity="1" stroke-opacity="1"/><path d="M1244,-128L1410,-61L1532,-27Z" fill="#8098b2" stroke="#8098b2" fill-opacity="1" stroke-opacity="1"/><path d="M1410,-61L1306,18L1380,133Z" fill="#7d99b4" stroke="#7d99b4" fill-opacity="1" stroke-opacity="1"/><path d="M1410,-61L1380,133L1532,-27Z" fill="#7e93ae" stroke="#7e93ae" fill-opacity="1" stroke-opacity="1"/><path d="M1532,-27L1380,133L1590,32Z" fill="#7b8ca9" stroke="#7b8ca9" fill-opacity="1" stroke-opacity="1"/><path d="M-49,127L-82,185L57,209Z" fill="#e3edfb" stroke="#e3edfb" fill-opacity="1" stroke-opacity="1"/><path d="M-49,127L57,209L94,47Z" fill="#e8eefa" stroke="#e8eefa" fill-opacity="1" stroke-opacity="1"/><path d="M94,47L57,209L206,119Z" fill="#e1e9f6" stroke="#e1e9f6" fill-opacity="1" stroke-opacity="1"/><path d="M206,119L57,209L223,237Z" fill="#cfdff4" stroke="#cfdff4" fill-opacity="1" stroke-opacity="1"/><path d="M206,119L223,237L380,197Z" fill="#c6d9f0" stroke="#c6d9f0" fill-opacity="1" stroke-opacity="1"/><path d="M206,119L380,197L434,89Z" fill="#cadaef" stroke="#cadaef" fill-opacity="1" stroke-opacity="1"/><path d="M434,89L380,197L566,250Z" fill="#b0cfea" stroke="#b0cfea" fill-opacity="1" stroke-opacity="1"/><path d="M434,89L566,250L484,46Z" fill="#b7d2ea" stroke="#b7d2ea" fill-opacity="1" stroke-opacity="1"/><path d="M484,46L566,250L679,133Z" fill="#abcde7" stroke="#abcde7" fill-opacity="1" stroke-opacity="1"/><path d="M679,133L566,250L720,239Z" fill="#8fc1e3" stroke="#8fc1e3" fill-opacity="1" stroke-opacity="1"/><path d="M679,133L720,239L785,245Z" fill="#86bde1" stroke="#86bde1" fill-opacity="1" stroke-opacity="1"/><path d="M679,133L785,245L869,129Z" fill="#8bc0e1" stroke="#8bc0e1" fill-opacity="1" stroke-opacity="1"/><path d="M869,129L785,245L808,324Z" fill="#72b5de" stroke="#72b5de" fill-opacity="1" stroke-opacity="1"/><path d="M869,129L808,324L1034,186Z" fill="#70b2d9" stroke="#70b2d9" fill-opacity="1" stroke-opacity="1"/><path d="M869,129L1034,186L927,56Z" fill="#83b8d8" stroke="#83b8d8" fill-opacity="1" stroke-opacity="1"/><path d="M927,56L1034,186L1162,41Z" fill="#80b1d0" stroke="#80b1d0" fill-opacity="1" stroke-opacity="1"/><path d="M1162,41L1034,186L1093,266Z" fill="#72a8ca" stroke="#72a8ca" fill-opacity="1" stroke-opacity="1"/><path d="M1162,41L1093,266L1320,251Z" fill="#659dc2" stroke="#659dc2" fill-opacity="1" stroke-opacity="1"/><path d="M1162,41L1320,251L1380,133Z" fill="#719abb" stroke="#719abb" fill-opacity="1" stroke-opacity="1"/><path d="M1162,41L1380,133L1306,18Z" fill="#799ebb" stroke="#799ebb" fill-opacity="1" stroke-opacity="1"/><path d="M1380,133L1320,251L1370,245Z" fill="#5e8bb3" stroke="#5e8bb3" fill-opacity="1" stroke-opacity="1"/><path d="M1380,133L1370,245L1622,196Z" fill="#6485ab" stroke="#6485ab" fill-opacity="1" stroke-opacity="1"/><path d="M1380,133L1622,196L1590,32Z" fill="#7386a6" stroke="#7386a6" fill-opacity="1" stroke-opacity="1"/><path d="M-82,185L-122,484L-50,428Z" fill="#b0d9f5" stroke="#b0d9f5" fill-opacity="1" stroke-opacity="1"/><path d="M-82,185L-50,428L57,209Z" fill="#c6e0f8" stroke="#c6e0f8" fill-opacity="1" stroke-opacity="1"/><path d="M57,209L-50,428L58,394Z" fill="#add5f2" stroke="#add5f2" fill-opacity="1" stroke-opacity="1"/><path d="M57,209L58,394L223,237Z" fill="#b8d7f3" stroke="#b8d7f3" fill-opacity="1" stroke-opacity="1"/><path d="M223,237L58,394L252,422Z" fill="#9dcaec" stroke="#9dcaec" fill-opacity="1" stroke-opacity="1"/><path d="M223,237L252,422L338,352Z" fill="#99c5ea" stroke="#99c5ea" fill-opacity="1" stroke-opacity="1"/><path d="M223,237L338,352L380,197Z" fill="#aaccec" stroke="#aaccec" fill-opacity="1" stroke-opacity="1"/><path d="M380,197L338,352L467,412Z" fill="#8ec0e7" stroke="#8ec0e7" fill-opacity="1" stroke-opacity="1"/><path d="M380,197L467,412L566,250Z" fill="#8fc0e7" stroke="#8fc0e7" fill-opacity="1" stroke-opacity="1"/><path d="M566,250L467,412L618,348Z" fill="#76b6e1" stroke="#76b6e1" fill-opacity="1" stroke-opacity="1"/><path d="M566,250L618,348L720,239Z" fill="#7cb8e2" stroke="#7cb8e2" fill-opacity="1" stroke-opacity="1"/><path d="M720,239L618,348L808,324Z" fill="#6bb1df" stroke="#6bb1df" fill-opacity="1" stroke-opacity="1"/><path d="M720,239L808,324L785,245Z" fill="#6eb3de" stroke="#6eb3de" fill-opacity="1" stroke-opacity="1"/><path d="M1034,186L808,324L1000,398Z" fill="#53a3d3" stroke="#53a3d3" fill-opacity="1" stroke-opacity="1"/><path d="M1034,186L1000,398L1093,266Z" fill="#529dcc" stroke="#529dcc" fill-opacity="1" stroke-opacity="1"/><path d="M1093,266L1000,398L1184,411Z" fill="#388fc3" stroke="#388fc3" fill-opacity="1" stroke-opacity="1"/><path d="M1093,266L1184,411L1320,251Z" fill="#418cbd" stroke="#418cbd" fill-opacity="1" stroke-opacity="1"/><path d="M1320,251L1184,411L1330,426Z" fill="#317fb3" stroke="#317fb3" fill-opacity="1" stroke-opacity="1"/><path d="M1320,251L1330,426L1429,366Z" fill="#357aad" stroke="#357aad" fill-opacity="1" stroke-opacity="1"/><path d="M1320,251L1429,366L1370,245Z" fill="#4780af" stroke="#4780af" fill-opacity="1" stroke-opacity="1"/><path d="M1370,245L1429,366L1529,369Z" fill="#3c75a8" stroke="#3c75a8" fill-opacity="1" stroke-opacity="1"/><path d="M1370,245L1529,369L1622,196Z" fill="#4c76a5" stroke="#4c76a5" fill-opacity="1" stroke-opacity="1"/><path d="M1622,196L1529,369L1571,507Z" fill="#33669a" stroke="#33669a" fill-opacity="1" stroke-opacity="1"/><path d="M1622,196L1571,507L1611,706Z" fill="#18548c" stroke="#18548c" fill-opacity="1" stroke-opacity="1"/><path d="M-50,428L-122,484L62,544Z" fill="#93c4e5" stroke="#93c4e5" fill-opacity="1" stroke-opacity="1"/><path d="M-50,428L62,544L58,394Z" fill="#8fc6e9" stroke="#8fc6e9" fill-opacity="1" stroke-opacity="1"/><path d="M58,394L62,544L167,566Z" fill="#86b8dd" stroke="#86b8dd" fill-opacity="1" stroke-opacity="1"/><path d="M58,394L167,566L252,422Z" fill="#83bde3" stroke="#83bde3" fill-opacity="1" stroke-opacity="1"/><path d="M252,422L167,566L345,520Z" fill="#78aed7" stroke="#78aed7" fill-opacity="1" stroke-opacity="1"/><path d="M252,422L345,520L338,352Z" fill="#78b8e2" stroke="#78b8e2" fill-opacity="1" stroke-opacity="1"/><path d="M338,352L345,520L467,412Z" fill="#70b4e0" stroke="#70b4e0" fill-opacity="1" stroke-opacity="1"/><path d="M467,412L345,520L561,583Z" fill="#5fa2d0" stroke="#5fa2d0" fill-opacity="1" stroke-opacity="1"/><path d="M467,412L561,583L618,348Z" fill="#57a8d9" stroke="#57a8d9" fill-opacity="1" stroke-opacity="1"/><path d="M618,348L561,583L682,544Z" fill="#4b9cce" stroke="#4b9cce" fill-opacity="1" stroke-opacity="1"/><path d="M618,348L682,544L808,324Z" fill="#4ea6d8" stroke="#4ea6d8" fill-opacity="1" stroke-opacity="1"/><path d="M808,324L682,544L866,501Z" fill="#389bd0" stroke="#389bd0" fill-opacity="1" stroke-opacity="1"/><path d="M808,324L866,501L1000,398Z" fill="#379bd1" stroke="#379bd1" fill-opacity="1" stroke-opacity="1"/><path d="M1000,398L866,501L970,478Z" fill="#298fc6" stroke="#298fc6" fill-opacity="1" stroke-opacity="1"/><path d="M1000,398L970,478L1115,585Z" fill="#2282ba" stroke="#2282ba" fill-opacity="1" stroke-opacity="1"/><path d="M1000,398L1115,585L1184,411Z" fill="#1e80b8" stroke="#1e80b8" fill-opacity="1" stroke-opacity="1"/><path d="M1184,411L1115,585L1240,494Z" fill="#1773ab" stroke="#1773ab" fill-opacity="1" stroke-opacity="1"/><path d="M1184,411L1240,494L1330,426Z" fill="#1a78af" stroke="#1a78af" fill-opacity="1" stroke-opacity="1"/><path d="M1330,426L1240,494L1392,522Z" fill="#186aa2" stroke="#186aa2" fill-opacity="1" stroke-opacity="1"/><path d="M1330,426L1392,522L1429,366Z" fill="#1b6da5" stroke="#1b6da5" fill-opacity="1" stroke-opacity="1"/><path d="M1429,366L1392,522L1529,369Z" fill="#2069a0" stroke="#2069a0" fill-opacity="1" stroke-opacity="1"/><path d="M1529,369L1392,522L1571,507Z" fill="#185e96" stroke="#185e96" fill-opacity="1" stroke-opacity="1"/><path d="M-122,484L-54,854L-61,636Z" fill="#8da3c4" stroke="#8da3c4" fill-opacity="1" stroke-opacity="1"/><path d="M-122,484L-61,636L62,544Z" fill="#90b6d7" stroke="#90b6d7" fill-opacity="1" stroke-opacity="1"/><path d="M62,544L-61,636L87,718Z" fill="#85a2c5" stroke="#85a2c5" fill-opacity="1" stroke-opacity="1"/><path d="M62,544L87,718L167,566Z" fill="#80a1c7" stroke="#80a1c7" fill-opacity="1" stroke-opacity="1"/><path d="M167,566L87,718L208,733Z" fill="#7892b9" stroke="#7892b9" fill-opacity="1" stroke-opacity="1"/><path d="M167,566L208,733L345,520Z" fill="#749ac3" stroke="#749ac3" fill-opacity="1" stroke-opacity="1"/><path d="M345,520L208,733L364,722Z" fill="#6a8bb6" stroke="#6a8bb6" fill-opacity="1" stroke-opacity="1"/><path d="M345,520L364,722L516,676Z" fill="#5e89b6" stroke="#5e89b6" fill-opacity="1" stroke-opacity="1"/><path d="M345,520L516,676L561,583Z" fill="#588fbe" stroke="#588fbe" fill-opacity="1" stroke-opacity="1"/><path d="M561,583L516,676L655,637Z" fill="#4981b3" stroke="#4981b3" fill-opacity="1" stroke-opacity="1"/><path d="M561,583L655,637L682,544Z" fill="#4587ba" stroke="#4587ba" fill-opacity="1" stroke-opacity="1"/><path d="M682,544L655,637L856,643Z" fill="#377eb3" stroke="#377eb3" fill-opacity="1" stroke-opacity="1"/><path d="M682,544L856,643L866,501Z" fill="#3184ba" stroke="#3184ba" fill-opacity="1" stroke-opacity="1"/><path d="M866,501L856,643L970,478Z" fill="#2782ba" stroke="#2782ba" fill-opacity="1" stroke-opacity="1"/><path d="M970,478L856,643L1025,657Z" fill="#2173ab" stroke="#2173ab" fill-opacity="1" stroke-opacity="1"/><path d="M970,478L1025,657L1115,585Z" fill="#1d70a8" stroke="#1d70a8" fill-opacity="1" stroke-opacity="1"/><path d="M1115,585L1025,657L1078,720Z" fill="#165c94" stroke="#165c94" fill-opacity="1" stroke-opacity="1"/><path d="M1115,585L1078,720L1247,658Z" fill="#11568e" stroke="#11568e" fill-opacity="1" stroke-opacity="1"/><path d="M1115,585L1247,658L1240,494Z" fill="#126199" stroke="#126199" fill-opacity="1" stroke-opacity="1"/><path d="M1240,494L1247,658L1392,522Z" fill="#135d95" stroke="#135d95" fill-opacity="1" stroke-opacity="1"/><path d="M1392,522L1247,658L1393,673Z" fill="#104c84" stroke="#104c84" fill-opacity="1" stroke-opacity="1"/><path d="M1392,522L1393,673L1571,507Z" fill="#134d85" stroke="#134d85" fill-opacity="1" stroke-opacity="1"/><path d="M1571,507L1393,673L1611,706Z" fill="#103a73" stroke="#103a73" fill-opacity="1" stroke-opacity="1"/><path d="M-61,636L-54,854L87,718Z" fill="#838fb2" stroke="#838fb2" fill-opacity="1" stroke-opacity="1"/><path d="M87,718L-54,854L89,792Z" fill="#7c81a6" stroke="#7c81a6" fill-opacity="1" stroke-opacity="1"/><path d="M87,718L89,792L208,733Z" fill="#7684ab" stroke="#7684ab" fill-opacity="1" stroke-opacity="1"/><path d="M208,733L89,792L228,852Z" fill="#6f78a0" stroke="#6f78a0" fill-opacity="1" stroke-opacity="1"/><path d="M208,733L228,852L322,810Z" fill="#68729c" stroke="#68729c" fill-opacity="1" stroke-opacity="1"/><path d="M208,733L322,810L364,722Z" fill="#6678a3" stroke="#6678a3" fill-opacity="1" stroke-opacity="1"/><path d="M364,722L322,810L541,848Z" fill="#566a98" stroke="#566a98" fill-opacity="1" stroke-opacity="1"/><path d="M364,722L541,848L516,676Z" fill="#506f9f" stroke="#506f9f" fill-opacity="1" stroke-opacity="1"/><path d="M516,676L541,848L655,637Z" fill="#4570a1" stroke="#4570a1" fill-opacity="1" stroke-opacity="1"/><path d="M655,637L541,848L634,882Z" fill="#3c6092" stroke="#3c6092" fill-opacity="1" stroke-opacity="1"/><path d="M655,637L634,882L823,865Z" fill="#315a8e" stroke="#315a8e" fill-opacity="1" stroke-opacity="1"/><path d="M655,637L823,865L856,643Z" fill="#2b669c" stroke="#2b669c" fill-opacity="1" stroke-opacity="1"/><path d="M856,643L823,865L936,793Z" fill="#1d578f" stroke="#1d578f" fill-opacity="1" stroke-opacity="1"/><path d="M856,643L936,793L1025,657Z" fill="#1c5f97" stroke="#1c5f97" fill-opacity="1" stroke-opacity="1"/><path d="M1025,657L936,793L1078,720Z" fill="#16538c" stroke="#16538c" fill-opacity="1" stroke-opacity="1"/><path d="M1078,720L936,793L1143,770Z" fill="#114881" stroke="#114881" fill-opacity="1" stroke-opacity="1"/><path d="M1078,720L1143,770L1247,658Z" fill="#0c4881" stroke="#0c4881" fill-opacity="1" stroke-opacity="1"/><path d="M1247,658L1143,770L1243,803Z" fill="#093e77" stroke="#093e77" fill-opacity="1" stroke-opacity="1"/><path d="M1247,658L1243,803L1393,673Z" fill="#0b3d76" stroke="#0b3d76" fill-opacity="1" stroke-opacity="1"/><path d="M1393,673L1243,803L1423,864Z" fill="#072a63" stroke="#072a63" fill-opacity="1" stroke-opacity="1"/><path d="M1393,673L1423,864L1540,835Z" fill="#071f59" stroke="#071f59" fill-opacity="1" stroke-opacity="1"/><path d="M1393,673L1540,835L1611,706Z" fill="#0a255e" stroke="#0a255e" fill-opacity="1" stroke-opacity="1"/><path d="M-54,854L634,882L228,852Z" fill="#63668e" stroke="#63668e" fill-opacity="1" stroke-opacity="1"/><path d="M-54,854L228,852L89,792Z" fill="#75759b" stroke="#75759b" fill-opacity="1" stroke-opacity="1"/><path d="M228,852L634,882L541,848Z" fill="#4a5b89" stroke="#4a5b89" fill-opacity="1" stroke-opacity="1"/><path d="M228,852L541,848L322,810Z" fill="#596490" stroke="#596490" fill-opacity="1" stroke-opacity="1"/><path d="M634,882L1423,864L823,865Z" fill="#113e73" stroke="#113e73" fill-opacity="1" stroke-opacity="1"/><path d="M823,865L1423,864L1243,803Z" fill="#052e66" stroke="#052e66" fill-opacity="1" stroke-opacity="1"/><path d="M823,865L1243,803L936,793Z" fill="#114079" stroke="#114079" fill-opacity="1" stroke-opacity="1"/><path d="M936,793L1243,803L1143,770Z" fill="#0c3e76" stroke="#0c3e76" fill-opacity="1" stroke-opacity="1"/></g></svg>